<?xml version="1.0" encoding="UTF-8"?>
<svg id="_レイヤー_1" data-name="レイヤー 1" xmlns="http://www.w3.org/2000/svg" viewBox="0 0 750 345.81">
  <defs>
    <style>
      .cls-1 {
        fill: #cda55c;
      }

      .cls-2 {
        fill: #52071d;
      }

      .cls-3 {
        fill: #e4e4e4;
      }

      .cls-4 {
        fill: #262326;
      }

      .cls-5 {
        fill: #d1d3be;
      }

      .cls-6 {
        fill: #f1e6d9;
      }

      .cls-7 {
        fill: #c4c4c4;
      }

      .cls-8 {
        fill: #edefed;
      }

      .cls-9 {
        fill: #34593b;
      }

      .cls-10 {
        fill: #ccc3ba;
      }

      .cls-11 {
        fill: #ffeda6;
      }

      .cls-12 {
        fill: #f9c846;
      }

      .cls-13 {
        fill: #cc7415;
      }

      .cls-14 {
        fill: #e88304;
      }

      .cls-15 {
        fill: #f7fbd6;
      }

      .cls-16 {
        fill: #2e4932;
      }
    </style>
  </defs>
  <g>
    <g>
      <path class="cls-16" d="M75.97,4.39c.21-.32.5-.52.87-.6L97.9,0l220.94,59.2-74.15,276.74c-6.89,3.4-13.83,6.93-20.93,9.79,1.17-4.82,2.71-9.58,3.89-14.41.19-.76-.09-1.45-.07-1.53,12.51-50.57,27.03-100.85,40.51-151.18,10.22-38.17,20.47-76.36,30.69-114.53L75.97,4.39Z"/>
      <path class="cls-9" d="M227.65,331.33c.19-.76-.09-1.45-.07-1.53,12.51-50.57,27.03-100.85,40.51-151.18,10.22-38.17,20.47-76.36,30.69-114.53L75.97,4.39c-.37.57-1.22,3-1.49,3.82-11.58,34.78-17.86,73.2-29.02,108.32-.09,3.21-1.7,5.88-1.96,9.05-.81.25-.84,1.47-1.04,2.17-13.19,47.24-25.57,94.81-38.1,142.23-1.43,5.41-2.92,10.83-4.35,16.24l222.23,59.57,1.53-.07c1.17-4.82,2.71-9.58,3.89-14.41Z"/>
    </g>
    <rect class="cls-8" x="93.06" y="75.92" width="161.81" height="211.68" transform="translate(52.97 -38.83) rotate(15)"/>
  </g>
  <g>
    <g>
      <path class="cls-5" d="M162.2,4.39c.21-.32.5-.52.87-.6L184.13,0l220.94,59.2-74.15,276.74c-6.89,3.4-13.83,6.93-20.93,9.79,1.17-4.82,2.71-9.58,3.89-14.41.19-.76-.09-1.45-.07-1.53,12.51-50.57,27.03-100.85,40.51-151.18,10.22-38.17,20.47-76.36,30.69-114.53L162.2,4.39Z"/>
      <path class="cls-15" d="M313.89,331.33c.19-.76-.09-1.45-.07-1.53,12.51-50.57,27.03-100.85,40.51-151.18,10.22-38.17,20.47-76.36,30.69-114.53L162.2,4.39c-.37.57-1.22,3-1.49,3.82-11.58,34.78-17.86,73.2-29.02,108.32-.09,3.21-1.7,5.88-1.96,9.05-.81.25-.84,1.47-1.04,2.17-13.19,47.24-25.57,94.81-38.1,142.23-1.43,5.41-2.92,10.83-4.35,16.24l222.23,59.57,1.53-.07c1.17-4.82,2.71-9.58,3.89-14.41Z"/>
    </g>
    <rect class="cls-8" x="121.49" y="112.01" width="231.16" height="119.05" transform="translate(52.47 -55.51) rotate(15)"/>
  </g>
  <g>
    <path class="cls-10" d="M248.43,4.39c.21-.32.5-.52.87-.6L270.36,0l220.94,59.2-74.15,276.74c-6.89,3.4-13.83,6.93-20.93,9.79,1.17-4.82,2.71-9.58,3.89-14.41.19-.76-.09-1.45-.07-1.53,12.51-50.57,27.03-100.85,40.51-151.18,10.22-38.17,20.47-76.36,30.69-114.53L248.43,4.39Z"/>
    <path class="cls-6" d="M400.12,331.33c.19-.76-.09-1.45-.07-1.53,12.51-50.57,27.03-100.85,40.51-151.18,10.22-38.17,20.47-76.36,30.69-114.53L248.43,4.39c-.37.57-1.22,3-1.49,3.82-11.58,34.78-17.86,73.2-29.02,108.32-.09,3.21-1.7,5.88-1.96,9.05-.81.25-.84,1.47-1.04,2.17-13.19,47.24-25.57,94.81-38.1,142.23-1.43,5.41-2.92,10.83-4.35,16.24l222.23,59.57,1.53-.07c1.17-4.82,2.71-9.58,3.89-14.41Z"/>
    <rect class="cls-2" x="185.86" y="223.01" width="231.46" height="51.49" transform="translate(74.66 -69.58) rotate(15)"/>
    <rect class="cls-1" x="293.96" y="90.78" width="87.05" height="87.05" transform="translate(46.26 -82.77) rotate(15)"/>
  </g>
  <g>
    <g>
      <path class="cls-13" d="M334.66,4.39c.21-.32.5-.52.87-.6L356.6,0l220.94,59.2-74.15,276.74c-6.89,3.4-13.83,6.93-20.93,9.79,1.17-4.82,2.71-9.58,3.89-14.41.19-.76-.09-1.45-.07-1.53,12.51-50.57,27.03-100.85,40.51-151.18,10.22-38.17,20.47-76.36,30.69-114.53L334.66,4.39Z"/>
      <path class="cls-14" d="M486.35,331.33c.19-.76-.09-1.45-.07-1.53,12.51-50.57,27.03-100.85,40.51-151.18,10.22-38.17,20.47-76.36,30.69-114.53L334.66,4.39c-.37.57-1.22,3-1.49,3.82-11.58,34.78-17.86,73.2-29.02,108.32-.09,3.21-1.7,5.88-1.96,9.05-.81.25-.84,1.47-1.04,2.17-13.19,47.24-25.57,94.81-38.1,142.23-1.43,5.41-2.92,10.83-4.35,16.24l222.23,59.57,1.53-.07c1.17-4.82,2.71-9.58,3.89-14.41Z"/>
    </g>
    <rect class="cls-4" x="318.83" y="32.69" width="231.61" height="85.94" transform="translate(34.39 -109.91) rotate(15)"/>
  </g>
  <g>
    <path class="cls-7" d="M420.9,4.39c.21-.32.5-.52.87-.6L442.83,0l220.94,59.2-74.15,276.74c-6.89,3.4-13.83,6.93-20.93,9.79,1.17-4.82,2.71-9.58,3.89-14.41.19-.76-.09-1.45-.07-1.53,12.51-50.57,27.03-100.85,40.51-151.18,10.22-38.17,20.47-76.36,30.69-114.53L420.9,4.39Z"/>
    <path class="cls-3" d="M572.58,331.33c.19-.76-.09-1.45-.07-1.53,12.51-50.57,27.03-100.85,40.51-151.18,10.22-38.17,20.47-76.36,30.69-114.53L420.9,4.39c-.37.57-1.22,3-1.49,3.82-11.58,34.78-17.86,73.2-29.02,108.32-.09,3.21-1.7,5.88-1.96,9.05-.81.25-.84,1.47-1.04,2.17-13.19,47.24-25.57,94.81-38.1,142.23-1.43,5.41-2.92,10.83-4.35,16.24l222.23,59.57,1.53-.07c1.17-4.82,2.71-9.58,3.89-14.41Z"/>
  </g>
  <g>
    <g>
      <path class="cls-12" d="M507.13,4.39c.21-.32.5-.52.87-.6L529.06,0l220.94,59.2-74.15,276.74c-6.89,3.4-13.83,6.93-20.93,9.79,1.17-4.82,2.71-9.58,3.89-14.41.19-.76-.09-1.45-.07-1.53,12.51-50.57,27.03-100.85,40.51-151.18,10.22-38.17,20.47-76.36,30.69-114.53L507.13,4.39Z"/>
      <path class="cls-11" d="M658.82,331.33c.19-.76-.09-1.45-.07-1.53,12.51-50.57,27.03-100.85,40.51-151.18,10.22-38.17,20.47-76.36,30.69-114.53L507.13,4.39c-.37.57-1.22,3-1.49,3.82-11.58,34.78-17.86,73.2-29.02,108.32-.09,3.21-1.7,5.88-1.96,9.05-.81.25-.84,1.47-1.04,2.17-13.19,47.24-25.57,94.81-38.1,142.23-1.43,5.41-2.92,10.83-4.35,16.24l222.23,59.57,1.53-.07c1.17-4.82,2.71-9.58,3.89-14.41Z"/>
    </g>
    <rect class="cls-8" x="449.99" y="143.51" width="231.55" height="175.25" transform="translate(79.1 -138.56) rotate(15)"/>
  </g>
</svg>