<?xml version="1.0" encoding="UTF-8"?>
<svg id="_レイヤー_3" data-name="レイヤー 3" xmlns="http://www.w3.org/2000/svg" viewBox="0 0 500 33.57">
  <defs>
    <style>
      .cls-1 {
        fill: #fff;
      }
    </style>
  </defs>
  <path class="cls-1" d="M243.9,32.53c-88.21-2.62-162.82-12.15-177.96-14.18.17-1.61-.14-3.28-.96-4.69-1.24-2.07-2.94-3.41-5.2-4.29,0,0,.51.26.51.26-3.72-1.88-7.12-.55-10.75.22-8.56,2.58-16.54,6.37-24.96,9.25-.19-.08-.39-.16-.58-.26-4.37-2.16-5.16-7.49-2.65-11.31.78-1.19,1.75-1.87,2.97-1.35,1.79,1.22,1.52,5.28.34,7l.19.38c1.28-.32,2.17-1.4,2.75-2.52,2.37-4.23-.84-10.19-6.11-8.39-1.51.68-2.6,1.69-3.33,2.87C15.72-.34,8.51-1.71,3.33,2.26-2.9,7.82.17,19.1,7.95,21.84c5.13,1.89,10.6,1.5,15.44-.16.56-.28,1.12-.56,1.68-.84,1.09.5,2.23.9,3.35,1.19.03.01.05.02.08.03-1.26.14-2.47.7-3.29,1.71-2.36,2.65-2.24,8.69,2.36,9.06,3.31.04,4.56-4.73,1.36-5.59.81,1.03.58,2.12-.25,2.87l.13-.16c-.48.28-.87.32-1.04.19-1.09-.57-1.04-1.81-.8-3.3.35-2.35,2.06-3.32,4.24-3.9,5.14,1.37,11.27,1.27,16.6.23,1.06-.22,2.58-.31,3.35.35,2.05,1.69,1.81,5.32-.1,6.98-.71.59-1.49.59-2.39.29-1.12-.86-2.08-2.3-1.26-3.73l-.33-.27c-1.67,1.5-.78,4.03.52,5.49,2,1.66,5.15.97,6.66-1.06,1.35-1.53,2.02-3.67,1.93-5.77,2.51,1.16,6.05-.36,7.68-2.55.95-.97,1.59-2.21,1.9-3.55,15.09,2.03,89.79,11.57,178.1,14.2l.03-1.04ZM22.56,19.76c-1.54.32-4.69.58-6.73.29-6.38-.48-12.74-4.15-11.16-11.31.36-2.65,2.27-3.94,4.85-4.34,2.66-.53,4.41,1.04,5.45,3.24.16,1.23.18,2.45-.06,3.52-.21,1.15-.87,2.17-1.56,2.55-.97.29-2.29.54-3.18.04-.84-.33-1.24-2.02-1.27-2.97.3-2.13,3.28-1.78,4.67-.95l.33-.27c-.47-.52-1.01-.73-1.56-.96-4.9-2.2-6.88,4.03-3.49,6.98,1.7,1.23,3.51,1.16,5.48.77,1.57-.64,2.59-1.72,3.25-3,.38,1.1.92,2.13,1.6,3.02.95,1.28,2.24,2.38,3.7,3.3-.1.03-.21.07-.31.1ZM62.43,19.44c-.99,2.28-3.03,4.75-5.78,4.18-.34-.14-.68-.37-.98-.66-.21-.53-.47-1.04-.8-1.52-.11-.71,0-1.52.3-2.3,0,0-.37-.21-.37-.21-.36.43-.63.94-.8,1.48-.15-.14-.3-.28-.46-.42-3.94-2.95-8.65-.52-13.12-.19-4.36.35-9.08,1.1-13.38.09,7.33-3.41,15.12-6.02,23.11-7.01,2.49-.21,5.68-.78,7.93-.18h-.17s.67.26.67.26c1.17.43,2.63,1.4,3.28,2.52.77,1.18.84,2.55.57,3.94Z"/>
  <path class="cls-1" d="M256.13,33.57c88.31-2.62,163.01-12.17,178.1-14.2.31,1.33.95,2.58,1.9,3.55,1.62,2.2,5.17,3.71,7.68,2.55-.1,2.09.58,4.23,1.93,5.77,1.5,2.03,4.65,2.72,6.66,1.06,1.3-1.47,2.19-4,.52-5.49l-.33.27c.82,1.44-.14,2.88-1.26,3.73-.89.29-1.68.3-2.39-.29-1.91-1.66-2.15-5.3-.1-6.98.78-.66,2.3-.57,3.35-.35,5.33,1.04,11.46,1.14,16.6-.23,2.18.58,3.89,1.54,4.24,3.9.24,1.49.29,2.73-.8,3.3-.18.13-.56.09-1.04-.19l.13.16c-.83-.75-1.05-1.84-.25-2.87-3.2.86-1.95,5.63,1.36,5.59,4.6-.38,4.72-6.42,2.36-9.06-.82-1.02-2.03-1.57-3.29-1.71.03-.01.05-.02.08-.03,1.12-.29,2.26-.69,3.35-1.19.56.28,1.12.56,1.68.84,4.84,1.66,10.31,2.05,15.44.16,7.78-2.74,10.85-14.03,4.62-19.58-5.18-3.98-12.39-2.6-14.83,3.25-.73-1.18-1.82-2.18-3.33-2.87-5.27-1.8-8.48,4.16-6.11,8.39.58,1.12,1.47,2.2,2.75,2.52l.19-.38c-1.18-1.72-1.45-5.78.34-7,1.22-.52,2.19.16,2.97,1.35,2.5,3.82,1.72,9.15-2.65,11.31-.19.09-.38.17-.58.26-8.42-2.88-16.4-6.67-24.96-9.25-3.63-.77-7.03-2.1-10.75-.22,0,0,.51-.26.51-.26-2.26.89-3.96,2.23-5.2,4.29-.82,1.41-1.13,3.08-.96,4.69-15.14,2.04-89.75,11.56-177.96,14.18l.03,1.04ZM477.13,19.66c1.45-.91,2.74-2.02,3.7-3.3.68-.89,1.22-1.92,1.6-3.02.65,1.29,1.68,2.37,3.25,3,1.97.4,3.78.46,5.48-.77,3.4-2.95,1.41-9.18-3.49-6.98-.55.23-1.09.44-1.56.96l.33.27c1.39-.82,4.37-1.18,4.67.95-.03.95-.43,2.65-1.27,2.97-.89.51-2.21.25-3.18-.04-.69-.38-1.34-1.4-1.56-2.55-.25-1.07-.22-2.29-.06-3.52,1.04-2.19,2.8-3.77,5.45-3.24,2.58.4,4.49,1.68,4.85,4.34,1.58,7.16-4.78,10.83-11.16,11.31-2.04.29-5.19.03-6.73-.29-.1-.03-.21-.07-.31-.1ZM438.14,15.49c.65-1.12,2.11-2.09,3.28-2.52l.67-.25h-.17c2.25-.6,5.44-.03,7.93.17,7.99.99,15.78,3.6,23.11,7.01-4.3,1.01-9.02.26-13.38-.09-4.47-.34-9.18-2.76-13.12.19-.16.13-.31.27-.46.42-.17-.54-.45-1.04-.8-1.48,0,0-.37.21-.37.21.3.78.42,1.59.3,2.3-.33.47-.6.98-.8,1.52-.29.29-.64.51-.98.66-2.75.57-4.8-1.91-5.78-4.18-.27-1.4-.19-2.77.57-3.94Z"/>
</svg>