<?xml version="1.0" encoding="UTF-8"?>
<svg id="_レイヤー_9" data-name="レイヤー 9" xmlns="http://www.w3.org/2000/svg" viewBox="0 0 500 103.25">
  <defs>
    <style>
      .cls-1 {
        fill: #f6ebdf;
      }
    </style>
  </defs>
  <path class="cls-1" d="M44.99,84.62c.25-.14.54,0,.67.23.24.42-.03,1.01-3.04,2.73-2.93,1.68-5.93,2.38-9.16,1.19-4.17-1.53-7.88-4.06-12.53-5.35-.54-.12-1.17-.2-1.85.23-.04.03-1.03.73-1.75,1.22-.32.22-.49.52-.32.78,6.93,10.84,7.25,10.7,11.49,8.53.36.03.62.18.76.41.16.26.12.55-.21.75,0,0-3.1,1.62-6.24,3.66-1.57,1.02-3.15,2.11-4.35,3.17l-.08.05c-.24.16-.52.08-.67-.13-.15-.22-.2-.56-.04-.92,3.22-2.73,3.06-3.04-.69-9.01-1.09-1.73-3.39-5.39-5.21-8.19-.84-1.29-1.55-2.36-2.03-3.03-3.82-5.28-3.18-5.09-7.74-3.05-.4.05-.7-.12-.87-.37-.15-.22-.12-.55.18-.75.02-.01.03-.02.04-.03,1.42-.84,2.61-1.57,3.68-2.27,2.15-1.41,3.9-2.68,6.39-4.41.3-.19.61-.38.91-.57,5.4-3.37,10.7-3.94,13.12.15,2.25,3.82.51,7.8-2.52,10.54-.19.17-.23.29-.18.37.09.15.52.19.74.26,4.9,1.27,8.43,4.22,13.17,5.46,2.72.74,4.82.39,7.14-.92.37-.21.75-.42,1.14-.69.02,0,.02-.01.04-.02ZM12.23,71.05c-2.08,1.31-2.74,2.21-2.1,3.46.5,1,.86,1.64,2.29,3.96,1.28,2,1.92,3,3.19,4.99.24.37.64.53.93.35.25-.16.5-.32.76-.48,3.44-2.19,8.12-6.06,5.22-10.87-2.99-4.96-7.85-2.93-10.28-1.41Z"/>
  <path class="cls-1" d="M66.75,73.96c.01.24-.17.52-.84.85,0,0-6.37,2.99-12.1,6.04-3.18,1.69-6.19,3.41-7.78,4.45-.02,0-.02.01-.04.02-.33.19-.6.09-.73-.14-.11-.19-.13-.53.05-.88,2.66-1.79,3.04-2.16,2.7-3.6-.24-1.01-2.97-6.13-8.35-16-3.49-6.4-4.89-5.89-8.35-5.01-.25.06-.64-.2-.74-.39-.15-.27-.12-.53.14-.68t.09-.05c1.22-.53,3.38-1.68,5.84-3.02,5.55-3,12.73-6.88,13.82-7.42.09-.05.14-.07.14-.07.23-.11.82-.4,1.01-.01,0,.02.01.02.02.04.08.16.11.34.21.53.56,1.14,1.66,2.56,2.3,3.86.04.08.08.16.12.24.16.31-.13.65-.44.8-.18.09-.38.14-.48.04-3.74-3.04-5.64-2.61-10.39-.13-1.08.56-2.01,1.16-2.77,1.71-1.1.8-.46,2.14,2.19,7.09.64,1.2,1.37,2.45,1.97,3.58.31.58.92.35,3.01-.75.65-.34,1.2-.7,1.77-1.08,1.29-.85,3.99-1.81,2.91-5.69-.07-.26.2-.59.51-.75s.64-.17.79.14l.04.08c.31,1.07.9,2.35,1.51,3.56,1.22,2.43,2.6,4.64,2.6,4.64l.02.04c.12.23-.1.44-.41.6-.35.17-.71.21-.87,0-2.15-3.49-5.25-2.02-8.42-.34-2.43,1.28-2.52,1.34-2.14,2.03.21.39.56,1.05.97,1.82,4.75,8.86,5.12,9.53,9.77,7.99.46-.14.94-.34,1.53-.65,4.05-2.09,6.38-4.66,7.4-10.37.03-.16.12-.3.25-.36.35-.17.82-.06.94.18,0,.02.01.02.02.04.28,1.91.09,5.66.22,7.01Z"/>
  <path class="cls-1" d="M78.9,69.38c-2.1.94-4.54,1.58-6.89,1.57-.42,0-.69-.17-.94-.67-.54-1.08-2.32-4.13-2.62-4.54-.07-.09.17-.32.43-.44.26-.12.56-.17.59-.09,2.43,3.27,6.13,4.31,8.79,3.11,3.9-1.76,5.05-6.04,3.61-9.46-.81-1.93-3.55-3.25-5.92-3.6-1.07-.15-2.19-.28-3.33-.44-3.91-.51-7.96-1.61-9.6-5.12-2.01-4.3,1.1-8.77,6.41-11.1,2.17-.95,4.32-1.37,4.96-1.62.73-.28.85-.08,3.55,4.41.05.12-.35.58-.67.71-.14.06-.25.06-.34-.05-1.84-2.18-4.31-3.47-7.58-2.03-3.09,1.36-5.01,4.66-3.8,7.29,1.01,2.19,3.68,3.04,6.41,3.36,1.02.12,2.13.21,3.26.34,3.84.47,7.99,1.97,9.69,6.02,1.68,4.01.12,9.58-6,12.33Z"/>
  <path class="cls-1" d="M111.01,26.92c.19.51.4,1.07.57,1.57.6,1.84.46,1.88,0,2.04-.28.09-.6.06-.75-.07-2-2.58-2.36-3.83-7.55-2.67-.98.2-1.8.44-2.46.68-2.63.93-2.96,1.23-2.91,1.93.08,1.13,1.61,5.44,3.23,9.9.91,2.52,2.07,5.63,2.97,8.03,2.22,5.95,2.61,7.15,7.43,6.07.38.1.61.34.69.55.1.29,0,.56-.35.68-.04.02-3.76.99-7.43,2.36-1.84.68-3.64,1.46-4.96,2.21l-.09.03c-.26.1-.47-.05-.58-.34-.09-.24-.08-.58.11-.89,4.41-2.51,4.27-2.51,1.8-9.51-.65-1.85-1.44-4.01-2.16-5.94-.72-1.93-1.4-3.68-1.78-4.63-.13-.32-2.38-6.38-2.9-6.93-.08-.07-.08-.63-1.01-.42-.34.08-1.73.51-3.18,1.07-5.04,1.94-5.99,2.87-6.29,8.3-.05.26-.23.47-.51.59-.32.13-.71.1-.82-.18,0,0-.02-.04-.03-.08-.52-2.97-.65-5.95-1.1-7.71-.04-.22.24-.48.57-.61.28-.11.59-.14.77.02.85.89,1.95.34,14.17-4.12,8.61-3.14,11.83-4.36,12.21-5.59.05-.16.22-.3.41-.37.33-.11.78-.03.82.1.1.8.32,1.77,1.15,3.97Z"/>
  <path class="cls-1" d="M144.23,45.46c-1.44.38-2.85.84-3.92,1.32t-.09.02c-.27.07-.52-.13-.6-.43-.07-.25-.03-.63.24-.88,1.65-.68,2.85-1.22,2.51-2.54-.27-1.02-3.93-6.31-5.18-8.02-.09-.16-.4-.37-5,.93-1.66.47-3.34,1.01-4.74,1.52-.28.08-.88.4-.89,1.18-.02,2.25-.23,6.45-.14,7.7.01.36.1.66.19.95.45,1.47,1.62,1.29,3.82,1,.38.12.6.37.67.62.09.3-.07.57-.38.66-.04.01-2.93.6-5.68,1.46-1.38.43-2.78.93-3.73,1.46-.02,0-.03,0-.04.01-.22.07-.44-.13-.53-.43-.08-.25-.09-.57.11-.87,3.23-1.55,3.22-2.94,3.93-15.03.29-4.86.61-10.31,1.3-14.9t-.02-.08c-.06-.21-.28-.61-.41-.7,0,0-.07-.07-.1-.16-.05-.17-.06-.39.1-.53.77-.73,1.34-1.3,1.72-2.32.12-.31.32-.5.52-.56.24-.07.47,0,.62.37,5.19,8.07,11.34,15.56,16.97,23.32,1.19,1.64,2.22,2.47,4.6,2.24.35.05.51.33.57.58.09.38,0,.77-.18.81,0,0-3.18.46-6.23,1.26ZM127.73,22.71c-.47.14-1.18,12.33-1.1,12.58.05.17.43.1.54.12.43-.08,1.86-.5,3.43-.95,4.43-1.27,5.08-1.43,4.99-1.77-.15-.55-7.66-10.03-7.85-9.98Z"/>
  <path class="cls-1" d="M177.96,16.12c.05.3.1.61.15.91.26,1.45.44,2.37.62,3.41.18,1.08.37,2.31.69,4.47,1.6,10.77-3.64,14.38-10.43,15.73-8.87,1.75-13.21-3.11-14.93-10.64-.03-.13-.05-.21-.08-.34-.45-2.19-.95-4.34-1.22-5.58-.6-2.72-.88-4.75-1.22-6.21-.71-3.12-1.55-3.67-5.45-2.97-.28-.11-.49-.33-.55-.59-.07-.3.06-.6.4-.68.29-.07,3.19-.54,6.63-1.3,1.99-.44,4.2-1.01,6.2-1.65t.1-.02c.34-.07.53.11.58.37.06.3-.02.63-.28.86-5.68,1.85-4.5,1.49-2.73,11.58.15.69.28,1.51.47,2.37,1.76,8.02,3.25,14.11,12.22,12.35,9.93-1.95,8.73-9.46,7.44-16.99-.24-1.43-.42-2.12-.62-3.06-1.77-8.08-1.75-8.51-7.1-8.06-.27-.08-.41-.33-.47-.63-.06-.3.04-.59.43-.66,0,0,3.44-.45,6.86-1.03,1.71-.29,3.36-.6,4.62-.93t.1-.02c.24-.04.43.16.47.46.04.26,0,.58-.28.8-2.78.75-3.65,1.83-2.62,8.03Z"/>
  <path class="cls-1" d="M219.04,32.18c.28-.02.48.23.5.49.04.48-.44.9-3.79,1.17-3.26.27-6.18-.38-8.52-2.83-3.03-3.17-5.25-7.04-8.8-10.2-.43-.35-.95-.68-1.71-.59-.05,0-1.2.22-2.03.34-.37.06-.64.26-.6.57,1.66,12.76,2,12.78,6.59,12.63.3.18.47.43.5.69.04.31-.12.54-.49.59,0,0-3.37.13-6.94.62-1.78.24-3.6.55-5.08.99t-.09.01c-.27.04-.49-.15-.53-.41-.04-.26.05-.59.34-.85,3.91-1.07,3.9-1.42,3.04-8.42-.25-2.03-.78-6.32-1.24-9.62-.21-1.52-.4-2.79-.55-3.6-1.2-6.41-.71-5.95-5.53-6.08-.37-.12-.56-.4-.61-.71-.04-.26.12-.55.46-.6.02,0,.03,0,.05,0,1.58-.15,2.91-.29,4.13-.46,2.45-.34,4.49-.74,7.37-1.23.34-.04.69-.08,1.03-.12,6.09-.73,10.98,1.03,11.43,5.75.42,4.41-2.73,7.27-6.5,8.44-.23.07-.32.17-.31.26.02.17.38.4.54.56,3.78,3.24,5.67,7.42,9.32,10.57,2.08,1.84,4.07,2.41,6.65,2.21.41-.03.83-.06,1.29-.14.02,0,.03,0,.05,0ZM195.83,5.92c-2.35.29-3.29.81-3.24,2.22.03,1.12.09,1.85.4,4.55.31,2.35.46,3.53.77,5.88.06.44.34.75.67.71.29-.04.57-.07.86-.11,3.9-.49,9.57-1.99,8.98-7.58-.6-5.76-5.69-6.01-8.43-5.68Z"/>
  <path class="cls-1" d="M242.19,31.95c-1.47.03-2.94.15-4.09.36t-.09,0c-.28,0-.47-.25-.48-.56,0-.26.12-.62.44-.8,1.75-.27,3.04-.52,3.01-1.88-.02-1.05-2.32-7.06-3.13-9.01-.05-.17-.3-.46-5.04-.27-1.71.07-3.46.19-4.92.36-.28.01-.94.18-1.14.94-.55,2.18-1.72,6.21-1.93,7.45-.07.36-.05.66-.04.97.09,1.53,1.26,1.64,3.44,1.88.33.2.49.5.5.76.02.31-.2.54-.52.55-.05,0-2.96-.11-5.81.08-1.42.09-2.89.24-3.93.54-.02,0-.03,0-.05,0-.23.02-.39-.23-.41-.54-.02-.26.05-.58.31-.82,3.46-.75,3.78-2.09,7.28-13.68,1.41-4.65,2.98-9.88,4.71-14.17t0-.09c0-.22-.13-.65-.23-.78,0,0-.05-.08-.06-.17,0-.18.03-.4.22-.49.92-.52,1.59-.95,2.2-1.85.19-.27.43-.41.63-.42.25,0,.45.12.51.51,3.12,9.06,7.31,17.79,10.94,26.65.77,1.88,1.56,2.92,3.92,3.26.32.13.42.44.42.7,0,.4-.18.75-.37.75,0,0-3.18-.3-6.31-.24ZM231.58,5.96c-.49.02-4,11.7-3.99,11.96,0,.18.39.2.49.24.43.02,1.9-.05,3.52-.12,4.57-.19,5.23-.19,5.22-.54-.02-.57-5.05-11.55-5.25-11.54Z"/>
  <path class="cls-1" d="M282.07,15.93c-.37,5.04-.72,12.36-.62,16.51,0,.13-.02.26-.03.39-.08,1.05-.56,1.28-1.11,1.24-.6-.04-.98-.42-1.56-1.48-1.36-2.38-4.63-7.03-8.77-11.89-4.24-4.99-8.95-10.26-12.25-14.18t-.1-.04c-.1,0-.25.08-.25.21-.02,1.27-.1,2.77-.12,4.35-.08,4.74-.04,10.25.11,13.04.33,6.08,1.24,6.29,4.91,6.97.27.23.4.54.39.8,0,.26-.15.48-.52.47,0,0-3.26-.4-6.57-.45-1.7-.02-3.36.05-4.7.27t-.09,0c-.23,0-.41-.22-.41-.48s.14-.53.42-.79c4.11-.48,4.36-1.42,4.48-11.25.05-3.95.07-9.35.12-13.87.02-1.36-.7-2.62-4.79-3.11-.2-.13-.44-.48-.44-.79,0-.26.2-.48.74-.48,0,0,2.22.18,4.49.21,1.04.01,2.07-.01,2.97-.09h.05c.1,0,.2,0,.24.18.37,1.33.91,1.68,2.67,3.71,2.76,3.23,5.92,6.81,9.17,10.39,3.05,3.37,6.12,7.58,8.67,10.75.09.09.13.14.22.15.09,0,.15-.08.16-.34,0-.04,0-.09,0-.13-.03-1.63.1-4.13.27-6.58.19-2.67.42-5.34.53-6.96.02-.35.05-.66.06-.88.31-4.88,1.02-7.41-5-8.41-.28-.24-.42-.51-.4-.77.01-.26.23-.52.62-.49,0,0,3.59.42,7.19.69,1.82.13,3.6.23,4.94.17t.1,0c.3.03.42.26.4.56-.02.26-.14.52-.46.71-4.31.12-4.91.23-5.76,11.7Z"/>
  <path class="cls-1" d="M321.09,10.4c-.06.54-.13,1.13-.22,1.65-.31,1.91-.45,1.88-.94,1.81-.29-.05-.56-.22-.63-.41-.58-3.2-.33-4.48-5.42-5.84-.96-.27-1.78-.43-2.47-.53-2.74-.38-3.16-.26-3.43.38-.44,1.04-1.07,5.57-1.69,10.27-.35,2.66-.75,5.95-1.06,8.5-.76,6.31-.98,7.55,3.75,8.8.29.26.38.59.35.8-.04.3-.26.5-.62.44-.05,0-3.75-.84-7.6-1.31-1.92-.24-3.86-.37-5.35-.31t-.09-.01c-.27-.03-.39-.26-.35-.57.03-.26.2-.55.5-.74,5-.2,4.88-.27,5.91-7.62.27-1.95.56-4.22.81-6.27.25-2.05.45-3.91.55-4.93.03-.34.82-6.75.62-7.49-.04-.09.22-.59-.69-.84-.34-.08-1.75-.34-3.27-.51-5.29-.59-6.54-.2-9.27,4.48-.17.21-.42.31-.71.29-.34-.03-.66-.24-.64-.54,0,0,0-.04,0-.09.89-2.87,2.13-5.58,2.54-7.35.07-.21.43-.31.77-.28.3.03.58.15.66.37.33,1.18,1.52,1.2,14.28,2.84,8.98,1.16,12.37,1.55,13.27.63.12-.11.33-.17.53-.14.34.06.7.34.68.47-.27.76-.53,1.71-.81,4.05Z"/>
  <path class="cls-1" d="M360.54,44.37c-.3.55-.17.45-.59.57-2.47.74-6.75.66-9.99-.14-9.25-2.28-16.52-9.23-14.37-19.9,1.66-8.26,10.9-13.85,21.25-11.32,4.26,1.04,6.56,2.47,9.5,3.25.14.04.29.08.43.12,1.15.31,1.3.42,1.07,1.38-.29,1.16-.44,4.5-.84,6.05-.07.25-.58.25-.91.16-.24-.06-.41-.16-.43-.3-.59-5.12-4.19-8.09-9.35-9.35-6.65-1.62-14.52,1.55-16.5,10.88-1.98,9.36,3.56,15.86,10.9,17.68,3.15.78,7.76-.37,11.11-4.19.08-.11.32-.09.5-.05.41.11.85.46.76.8-.02.08-.06.21-.17.27-1.04.94-1.91,3.21-2.38,4.08Z"/>
  <path class="cls-1" d="M400.63,36.76c-.11.29-.22.58-.32.87-.48,1.39-.78,2.28-1.14,3.27-.38,1.03-.81,2.19-1.59,4.23-3.91,10.16-10.31,10.71-16.93,8.53-8.65-2.85-10.04-9.22-7.84-16.63.04-.13.06-.21.1-.34.68-2.13,1.3-4.25,1.67-5.46.82-2.66,1.57-4.57,1.99-6,.92-3.07.45-3.96-3.31-5.27-.19-.24-.26-.53-.19-.78.08-.29.35-.49.68-.4.29.08,3.05,1.1,6.44,2.13,1.96.59,4.17,1.19,6.24,1.62t.1.03c.33.11.41.36.33.61-.09.29-.33.54-.67.62-5.89-1.19-4.68-.92-8.1,8.74-.21.67-.5,1.46-.75,2.29-2.41,7.85-4.12,13.88,4.63,16.77,9.67,3.2,12.34-3.92,14.92-11.11.49-1.36.68-2.05.96-2.97,2.43-7.9,2.65-8.27-2.27-10.52-.19-.21-.2-.49-.1-.78.1-.29.33-.49.71-.36,0,0,3.25,1.31,6.55,2.5,1.65.6,3.26,1.15,4.53,1.48t.09.04c.24.09.3.35.19.63-.09.25-.29.5-.64.56-2.82-.73-4.12-.21-6.27,5.69Z"/>
  <path class="cls-1" d="M429.07,71.22c.26.12.31.44.2.68-.21.44-.84.56-3.95-.88-3.03-1.4-5.3-3.43-6.17-6.73-1.12-4.27-1.18-8.75-2.76-13.27-.21-.51-.5-1.06-1.22-1.36-.05-.02-1.17-.41-1.96-.71-.35-.13-.7-.09-.81.19-4.83,11.92-4.55,12.11-.41,14.27.18.31.2.61.1.85-.12.28-.38.41-.72.27,0,0-3.06-1.57-6.45-2.92-1.7-.68-3.45-1.32-4.97-1.67t-.09-.03c-.26-.1-.36-.37-.26-.62.09-.25.34-.48.72-.57,3.98,1.01,4.15.7,6.84-5.82.78-1.89,2.43-5.88,3.66-8.99.57-1.43,1.03-2.62,1.3-3.41,2.11-6.17,2.31-5.54-1.88-8.04-.26-.29-.29-.63-.18-.92.09-.25.38-.42.7-.29.02,0,.03.01.05.02,1.47.66,2.71,1.19,3.88,1.65,2.33.92,4.34,1.59,7.13,2.6.33.14.65.27.98.41,5.76,2.4,9.23,6.38,7.3,10.71-1.81,4.05-6.02,4.95-9.94,4.09-.24-.05-.36-.01-.4.07-.07.16.14.54.21.76,1.74,4.71,1.36,9.29,3.05,13.85.94,2.64,2.43,4.14,4.82,5.26.38.18.77.36,1.21.52.02,0,.03.01.04.02ZM421.45,36.77c-2.22-.92-3.31-.93-3.97.32-.52.99-.83,1.65-1.9,4.16-.89,2.2-1.34,3.3-2.23,5.49-.17.41-.07.82.24.95.27.11.54.22.81.33,3.69,1.51,9.46,3.04,11.71-2.11,2.32-5.31-2.07-8.07-4.67-9.14Z"/>
  <path class="cls-1" d="M457.66,86.12c.25.14.28.47.15.69-.24.42-.88.49-3.91-1.2-2.94-1.65-5.08-3.85-5.71-7.22-.81-4.36-.54-8.83-1.8-13.47-.17-.53-.43-1.1-1.13-1.46-.04-.02-1.14-.5-1.92-.87-.35-.16-.69-.15-.83.13-5.73,11.52-5.46,11.72-1.46,14.21.15.32.16.63.04.86-.14.27-.41.38-.75.21,0,0-2.95-1.81-6.26-3.43-1.65-.81-3.37-1.59-4.87-2.06t-.09-.04c-.26-.12-.33-.4-.22-.64.11-.24.37-.46.76-.51,3.92,1.33,4.11,1.03,7.29-5.26.92-1.83,2.88-5.68,4.34-8.68.67-1.38,1.23-2.54,1.55-3.3,2.57-5.99,2.72-5.34-1.29-8.17-.24-.31-.25-.65-.12-.93.11-.24.41-.39.73-.24.02,0,.03.01.05.02,1.42.77,2.63,1.4,3.77,1.96,2.27,1.11,4.24,1.93,6.97,3.17.32.16.63.32.95.48,5.6,2.86,8.8,7.11,6.54,11.28-2.11,3.9-6.41,4.46-10.28,3.29-.24-.07-.36-.04-.41.04-.08.16.1.55.15.77,1.4,4.84.68,9.38,2.05,14.08.75,2.71,2.13,4.33,4.45,5.64.37.21.75.42,1.18.62.02,0,.03.01.04.02ZM452.54,51.1c-2.16-1.1-3.26-1.19-4.01,0-.59.94-.96,1.58-2.21,4-1.06,2.12-1.58,3.18-2.64,5.31-.2.39-.13.82.17.97.26.13.53.26.79.4,3.6,1.8,9.27,3.8,11.91-1.17,2.72-5.12-1.49-8.22-4.01-9.51Z"/>
  <path class="cls-1" d="M493.89,77.06c-2.8.74-8.37,2.99-13.76,4.86-1.06.38-1.43.97-1.97,1.67,0,0-.14.03-3.43,5.52-2.36,3.93-3.31,4.41,1.19,7.81.17.37.12.7,0,.89-.17.26-.49.31-.83.14,0,0-3.23-2.43-6.65-4.52-1.71-1.05-3.47-2.01-4.86-2.57t-.08-.05c-.25-.15-.3-.43-.16-.66.13-.23.44-.46.84-.47,4.94,2.17,4.69,1.49,7.43-2.34.39-.64,2.91-4.86,2.93-4.9.96-1.57,1.01-2.22.95-2.51-.69-4.38-.66-9.32-1.16-13.48-.31-2.57-.67-3.5-3.08-5.22-.16-.34-.12-.62,0-.81.17-.31.53-.41.84-.23,0,0,2.88,1.94,6.14,3.87,1.67.99,3.38,1.92,4.92,2.64t.09.05c.26.16.28.43.14.65-.11.19-.52.47-.8.43-.7-.09-3.74-2.2-4.41-1.07-.11.19-.18.5-.12.9.33,3.52.23,7.77.95,12.19.03.23.11.38.2.43.51.31,11.02-3.79,12.07-5.41.85-1.33-1.99-2.48-2.59-3.27-.17-.22-.09-.63.03-.81.16-.26.52-.35.83-.15,0,0,2.25,1.63,5.01,3.42,1.34.87,2.82,1.8,4.23,2.57.02.01.03.02.04.03.3.2.35.5.18.75-.12.18-.35.34-.73.36-1.26-.52-2.78-1.11-4.33-.7Z"/>
</svg>